<?xml version="1.0" encoding="utf-8"?>
<!-- Generator: Adobe Illustrator 25.2.3, SVG Export Plug-In . SVG Version: 6.00 Build 0)  -->
<svg version="1.1" id="Ebene_1" xmlns="http://www.w3.org/2000/svg" xmlns:xlink="http://www.w3.org/1999/xlink" x="0px" y="0px"
	 viewBox="0 0 243.8 39.7" style="enable-background:new 0 0 243.8 39.7;" xml:space="preserve">
<style type="text/css">
	.st0{fill:#FFFFFF;}
	.st1{fill-rule:evenodd;clip-rule:evenodd;fill:#006EB7;}
</style>
<rect x="2.6" y="2.5" class="st0" width="225.9" height="35"/>
<g>
	<path class="st1" d="M233.5,5.9c0-2.5,2-4.4,4.4-4.4c2.4,0,4.4,1.8,4.4,4.4c0,2.5-2,4.4-4.4,4.4C235.5,10.3,233.5,8.4,233.5,5.9
		L233.5,5.9z M237.9,9.5c2,0,3.6-1.5,3.6-3.6c0-2.1-1.6-3.6-3.6-3.6c-2,0-3.6,1.5-3.6,3.6C234.4,8,235.9,9.5,237.9,9.5L237.9,9.5z
		 M237,8.4h-0.7V3.4h1.9c1.2,0,1.8,0.4,1.8,1.5c0,0.9-0.6,1.3-1.3,1.4l1.5,2.2h-0.9l-1.4-2.2H237V8.4L237,8.4z M237.9,5.6
		c0.7,0,1.2-0.1,1.2-0.9c0-0.6-0.6-0.7-1.1-0.7H237v1.6H237.9L237.9,5.6z"/>
	<path class="st1" d="M227.8,1.3H3.6c-1.2,0-2.2,0.9-2.2,2.1v32.8c0,1.2,1,2.1,2.2,2.1h224.2c1.2,0,2.2-0.9,2.2-2.1V3.4
		C230,2.3,229,1.3,227.8,1.3z M227.9,36.4H3.4V3.3h224.5V36.4z"/>
	<path class="st1" d="M39.3,4.9H6.5c-0.4,0-0.7,0.3-0.7,0.7v28.4c0,0.4,0.3,0.7,0.7,0.7h32.8c0.4,0,0.7-0.3,0.7-0.7V5.6
		C40,5.2,39.7,4.9,39.3,4.9z M34.4,25.4c0,1.2-1,2.1-2.2,2.1H13.5c-1.2,0-2.1-0.9-2.1-2.1V12.5c0-0.2,0.1-0.4,0.4-0.4h4.3
		c0.1,0,0.4,0.1,0.4,0.4v13.1h4V12.5c0-0.2,0.1-0.4,0.4-0.4h4.3c0.2,0,0.4,0.1,0.4,0.4v13.1h4V12.5c0-0.2,0.1-0.4,0.4-0.4h4.3
		c0.2,0,0.4,0.1,0.4,0.4V25.4z"/>
	<path class="st1" d="M113.6,4.9H80.7c-0.4,0-0.7,0.3-0.7,0.7v28.4c0,0.4,0.4,0.7,0.7,0.7h32.9c0.4,0,0.7-0.3,0.7-0.7V5.6
		C114.3,5.2,114,4.9,113.6,4.9z M99.7,27.2c0,0.2-0.1,0.4-0.4,0.4H95c-0.2,0-0.4-0.1-0.4-0.4V12.4c0-0.2,0.1-0.4,0.4-0.4h4.3
		c0.2,0,0.4,0.1,0.4,0.4V27.2z"/>
	<path class="st1" d="M76.5,4.9H43.6c-0.4,0-0.7,0.3-0.7,0.7v28.4c0,0.4,0.3,0.7,0.7,0.7h32.9c0.4,0,0.7-0.3,0.7-0.7V5.6
		C77.2,5.2,76.9,4.9,76.5,4.9z M65.4,13.7c0,0.2-0.1,0.4-0.4,0.4h-5.2v4.8H65c0.2,0,0.4,0.1,0.4,0.4v1.2c0,0.2-0.1,0.4-0.4,0.4h-5.2
		v4.8H65c0.2,0,0.4,0.1,0.4,0.4v1.3c0,0.2-0.1,0.4-0.4,0.4h-9.9c-0.2,0-0.4-0.1-0.4-0.4V12.4c0-0.2,0.1-0.4,0.4-0.4H65
		c0.2,0,0.4,0.1,0.4,0.4V13.7z"/>
	<g>
		<rect x="168.9" y="14.1" class="st1" width="5" height="11.5"/>
		<path class="st1" d="M187.9,4.9H155c-0.4,0-0.7,0.3-0.7,0.7v28.4c0,0.4,0.3,0.7,0.7,0.7h32.9c0.4,0,0.7-0.3,0.7-0.7V5.6
			C188.5,5.2,188.2,4.9,187.9,4.9z M178.9,25.4c0,1.2-0.9,2.1-2.1,2.1H166c-1.2,0-2.2-0.9-2.2-2.1V14.3c0-1.2,0.9-2.1,2.2-2.1h10.8
			c1.2,0,2.1,0.9,2.1,2.1V25.4z"/>
	</g>
	<path class="st1" d="M150.7,4.9h-32.8c-0.4,0-0.7,0.3-0.7,0.7v28.4c0,0.4,0.4,0.7,0.7,0.7h32.8c0.4,0,0.7-0.3,0.7-0.7V5.6
		C151.4,5.2,151.1,4.9,150.7,4.9z M139.6,13.7c0,0.2-0.1,0.4-0.4,0.4H134v11.5h5.2c0.2,0,0.4,0.1,0.4,0.4v1.3c0,0.2-0.1,0.4-0.4,0.4
		H131c-1.2,0-2.1-0.9-2.1-2.2V14.2c0-1.2,0.9-2.2,2.1-2.2h8.2c0.2,0,0.4,0.2,0.4,0.4V13.7z"/>
	<path class="st1" d="M224.9,4.9h-32.8c-0.4,0-0.7,0.3-0.7,0.7v28.4c0,0.4,0.3,0.7,0.7,0.7h32.8c0.4,0,0.7-0.3,0.7-0.7V5.6
		C225.7,5.2,225.4,4.9,224.9,4.9z M216,27.2c0,0.2-0.1,0.4-0.4,0.4h-4.3c-0.2,0-0.4-0.1-0.4-0.4V14.1h-4.9v13.1
		c0,0.2-0.1,0.4-0.4,0.4h-4.3c-0.2,0-0.4-0.1-0.4-0.4V12.4c0-0.2,0.1-0.4,0.4-0.4h12.4c1.2,0,2.2,1,2.2,2.2V27.2z"/>
</g>
</svg>
